<mxfile host="app.diagrams.net" agent="Mozilla/5.0 (Windows NT 10.0; Win64; x64) AppleWebKit/537.36 (KHTML, like Gecko) Chrome/131.0.0.0 Safari/537.36" version="27.0.6">
  <diagram name="Trang-1" id="qPCSpmwevU_B9GJ8JTcX">
    <mxGraphModel grid="1" page="1" gridSize="10" guides="1" tooltips="1" connect="1" arrows="1" fold="1" pageScale="1" pageWidth="827" pageHeight="1169" math="0" shadow="0">
      <root>
        <mxCell id="0" />
        <mxCell id="1" parent="0" />
        <mxCell id="4seNNqvkDYJwsG72tz4Y-1" value="KhachHang" style="shape=umlActor;verticalLabelPosition=bottom;verticalAlign=top;html=1;outlineConnect=0;textShadow=0;labelBorderColor=none;labelBackgroundColor=none;fillColor=#F2CC8F;strokeColor=#E07A5F;fontColor=#393C56;" vertex="1" parent="1">
          <mxGeometry x="50" y="426" width="30" height="60" as="geometry" />
        </mxCell>
        <mxCell id="4seNNqvkDYJwsG72tz4Y-3" value="HeThongCSDL" style="shape=umlActor;verticalLabelPosition=bottom;verticalAlign=top;html=1;outlineConnect=0;textShadow=0;labelBorderColor=none;labelBackgroundColor=none;fillColor=#F2CC8F;strokeColor=#E07A5F;fontColor=#393C56;" vertex="1" parent="1">
          <mxGeometry x="753" y="426" width="30" height="60" as="geometry" />
        </mxCell>
        <mxCell id="4seNNqvkDYJwsG72tz4Y-4" value="Dang nhap" style="ellipse;whiteSpace=wrap;html=1;labelBackgroundColor=none;fillColor=#F2CC8F;strokeColor=#E07A5F;fontColor=#393C56;" vertex="1" parent="1">
          <mxGeometry x="360" y="260" width="120" height="50" as="geometry" />
        </mxCell>
        <mxCell id="4seNNqvkDYJwsG72tz4Y-5" value="Xem san pham theo danh má»¥c" style="ellipse;whiteSpace=wrap;html=1;labelBackgroundColor=none;fillColor=#F2CC8F;strokeColor=#E07A5F;fontColor=#393C56;" vertex="1" parent="1">
          <mxGeometry x="360" y="320" width="120" height="50" as="geometry" />
        </mxCell>
        <mxCell id="4seNNqvkDYJwsG72tz4Y-6" value="Xem chi tiet mot san pham" style="ellipse;whiteSpace=wrap;html=1;labelBackgroundColor=none;fillColor=#F2CC8F;strokeColor=#E07A5F;fontColor=#393C56;" vertex="1" parent="1">
          <mxGeometry x="360" y="390" width="120" height="50" as="geometry" />
        </mxCell>
        <mxCell id="4seNNqvkDYJwsG72tz4Y-7" value="Tim kiem san pham" style="ellipse;whiteSpace=wrap;html=1;labelBackgroundColor=none;fillColor=#F2CC8F;strokeColor=#E07A5F;fontColor=#393C56;" vertex="1" parent="1">
          <mxGeometry x="360" y="450" width="120" height="50" as="geometry" />
        </mxCell>
        <mxCell id="4seNNqvkDYJwsG72tz4Y-8" value="Quan ly gio hang" style="ellipse;whiteSpace=wrap;html=1;labelBackgroundColor=none;fillColor=#F2CC8F;strokeColor=#E07A5F;fontColor=#393C56;" vertex="1" parent="1">
          <mxGeometry x="360" y="510" width="120" height="50" as="geometry" />
        </mxCell>
        <mxCell id="4seNNqvkDYJwsG72tz4Y-9" value="Theo doi don hang" style="ellipse;whiteSpace=wrap;html=1;labelBackgroundColor=none;fillColor=#F2CC8F;strokeColor=#E07A5F;fontColor=#393C56;" vertex="1" parent="1">
          <mxGeometry x="353" y="570" width="120" height="50" as="geometry" />
        </mxCell>
        <mxCell id="4seNNqvkDYJwsG72tz4Y-10" value="Thanh toan" style="ellipse;whiteSpace=wrap;html=1;labelBackgroundColor=none;fillColor=#F2CC8F;strokeColor=#E07A5F;fontColor=#393C56;" vertex="1" parent="1">
          <mxGeometry x="360" y="630" width="120" height="50" as="geometry" />
        </mxCell>
        <mxCell id="4seNNqvkDYJwsG72tz4Y-11" value="Lien he" style="ellipse;whiteSpace=wrap;html=1;labelBackgroundColor=none;fillColor=#F2CC8F;strokeColor=#E07A5F;fontColor=#393C56;" vertex="1" parent="1">
          <mxGeometry x="360" y="690" width="120" height="50" as="geometry" />
        </mxCell>
        <mxCell id="4seNNqvkDYJwsG72tz4Y-12" value="Dang ky" style="ellipse;whiteSpace=wrap;html=1;labelBackgroundColor=none;fillColor=#F2CC8F;strokeColor=#E07A5F;fontColor=#393C56;" vertex="1" parent="1">
          <mxGeometry x="360" y="190" width="120" height="50" as="geometry" />
        </mxCell>
        <mxCell id="4seNNqvkDYJwsG72tz4Y-52" value="Dang xuat" style="ellipse;whiteSpace=wrap;html=1;labelBackgroundColor=none;fillColor=#F2CC8F;strokeColor=#E07A5F;fontColor=#393C56;" vertex="1" parent="1">
          <mxGeometry x="360" y="750" width="120" height="50" as="geometry" />
        </mxCell>
        <mxCell id="4seNNqvkDYJwsG72tz4Y-54" value="" style="endArrow=open;endFill=1;endSize=12;html=1;rounded=0;entryX=0.007;entryY=0.685;entryDx=0;entryDy=0;entryPerimeter=0;labelBackgroundColor=none;strokeColor=#E07A5F;fontColor=default;" edge="1" parent="1" target="4seNNqvkDYJwsG72tz4Y-12">
          <mxGeometry width="160" relative="1" as="geometry">
            <mxPoint x="80" y="440" as="sourcePoint" />
            <mxPoint x="240" y="440" as="targetPoint" />
          </mxGeometry>
        </mxCell>
        <mxCell id="4seNNqvkDYJwsG72tz4Y-55" value="" style="endArrow=open;endFill=1;endSize=12;html=1;rounded=0;entryX=0.03;entryY=0.659;entryDx=0;entryDy=0;entryPerimeter=0;labelBackgroundColor=none;strokeColor=#E07A5F;fontColor=default;" edge="1" parent="1" target="4seNNqvkDYJwsG72tz4Y-4">
          <mxGeometry width="160" relative="1" as="geometry">
            <mxPoint x="80" y="450" as="sourcePoint" />
            <mxPoint x="240" y="450" as="targetPoint" />
          </mxGeometry>
        </mxCell>
        <mxCell id="4seNNqvkDYJwsG72tz4Y-56" value="" style="endArrow=open;endFill=1;endSize=12;html=1;rounded=0;entryX=0;entryY=0.5;entryDx=0;entryDy=0;labelBackgroundColor=none;strokeColor=#E07A5F;fontColor=default;" edge="1" parent="1" target="4seNNqvkDYJwsG72tz4Y-5">
          <mxGeometry width="160" relative="1" as="geometry">
            <mxPoint x="80" y="455.41" as="sourcePoint" />
            <mxPoint x="240" y="455.41" as="targetPoint" />
          </mxGeometry>
        </mxCell>
        <mxCell id="4seNNqvkDYJwsG72tz4Y-57" value="" style="endArrow=open;endFill=1;endSize=12;html=1;rounded=0;labelBackgroundColor=none;strokeColor=#E07A5F;fontColor=default;" edge="1" parent="1" target="4seNNqvkDYJwsG72tz4Y-6">
          <mxGeometry width="160" relative="1" as="geometry">
            <mxPoint x="80" y="460" as="sourcePoint" />
            <mxPoint x="240" y="460" as="targetPoint" />
          </mxGeometry>
        </mxCell>
        <mxCell id="4seNNqvkDYJwsG72tz4Y-58" value="" style="endArrow=open;endFill=1;endSize=12;html=1;rounded=0;entryX=-0.009;entryY=0.322;entryDx=0;entryDy=0;entryPerimeter=0;labelBackgroundColor=none;strokeColor=#E07A5F;fontColor=default;" edge="1" parent="1" target="4seNNqvkDYJwsG72tz4Y-7">
          <mxGeometry width="160" relative="1" as="geometry">
            <mxPoint x="80" y="466" as="sourcePoint" />
            <mxPoint x="240" y="470" as="targetPoint" />
          </mxGeometry>
        </mxCell>
        <mxCell id="4seNNqvkDYJwsG72tz4Y-59" value="" style="endArrow=open;endFill=1;endSize=12;html=1;rounded=0;entryX=0;entryY=0.5;entryDx=0;entryDy=0;labelBackgroundColor=none;strokeColor=#E07A5F;fontColor=default;" edge="1" parent="1" target="4seNNqvkDYJwsG72tz4Y-8">
          <mxGeometry width="160" relative="1" as="geometry">
            <mxPoint x="80" y="474.41" as="sourcePoint" />
            <mxPoint x="240" y="474.41" as="targetPoint" />
          </mxGeometry>
        </mxCell>
        <mxCell id="4seNNqvkDYJwsG72tz4Y-60" value="" style="endArrow=open;endFill=1;endSize=12;html=1;rounded=0;entryX=0;entryY=0.5;entryDx=0;entryDy=0;labelBackgroundColor=none;strokeColor=#E07A5F;fontColor=default;" edge="1" parent="1" target="4seNNqvkDYJwsG72tz4Y-10">
          <mxGeometry width="160" relative="1" as="geometry">
            <mxPoint x="80" y="490" as="sourcePoint" />
            <mxPoint x="240" y="490" as="targetPoint" />
          </mxGeometry>
        </mxCell>
        <mxCell id="4seNNqvkDYJwsG72tz4Y-61" value="" style="endArrow=open;endFill=1;endSize=12;html=1;rounded=0;entryX=0;entryY=0.5;entryDx=0;entryDy=0;labelBackgroundColor=none;strokeColor=#E07A5F;fontColor=default;" edge="1" parent="1" target="4seNNqvkDYJwsG72tz4Y-9">
          <mxGeometry width="160" relative="1" as="geometry">
            <mxPoint x="80" y="484.82" as="sourcePoint" />
            <mxPoint x="240" y="484.82" as="targetPoint" />
          </mxGeometry>
        </mxCell>
        <mxCell id="4seNNqvkDYJwsG72tz4Y-62" value="" style="endArrow=open;endFill=1;endSize=12;html=1;rounded=0;entryX=-0.017;entryY=0.36;entryDx=0;entryDy=0;entryPerimeter=0;labelBackgroundColor=none;strokeColor=#E07A5F;fontColor=default;" edge="1" parent="1" target="4seNNqvkDYJwsG72tz4Y-11">
          <mxGeometry width="160" relative="1" as="geometry">
            <mxPoint x="100" y="500" as="sourcePoint" />
            <mxPoint x="260" y="500" as="targetPoint" />
          </mxGeometry>
        </mxCell>
        <mxCell id="4seNNqvkDYJwsG72tz4Y-63" value="" style="endArrow=open;endFill=1;endSize=12;html=1;rounded=0;entryX=0;entryY=0.5;entryDx=0;entryDy=0;labelBackgroundColor=none;strokeColor=#E07A5F;fontColor=default;" edge="1" parent="1" target="4seNNqvkDYJwsG72tz4Y-52">
          <mxGeometry width="160" relative="1" as="geometry">
            <mxPoint x="100" y="510" as="sourcePoint" />
            <mxPoint x="260" y="510" as="targetPoint" />
          </mxGeometry>
        </mxCell>
        <mxCell id="4seNNqvkDYJwsG72tz4Y-71" value="" style="endArrow=none;html=1;rounded=0;labelBackgroundColor=none;strokeColor=#E07A5F;fontColor=default;" edge="1" parent="1">
          <mxGeometry relative="1" as="geometry">
            <mxPoint x="480" y="414.41" as="sourcePoint" />
            <mxPoint x="750" y="460" as="targetPoint" />
          </mxGeometry>
        </mxCell>
        <mxCell id="4seNNqvkDYJwsG72tz4Y-72" value="" style="endArrow=none;html=1;rounded=0;labelBackgroundColor=none;strokeColor=#E07A5F;fontColor=default;" edge="1" parent="1">
          <mxGeometry relative="1" as="geometry">
            <mxPoint x="480" y="474.40999999999997" as="sourcePoint" />
            <mxPoint x="750" y="470" as="targetPoint" />
          </mxGeometry>
        </mxCell>
        <mxCell id="4seNNqvkDYJwsG72tz4Y-73" value="" style="endArrow=none;html=1;rounded=0;labelBackgroundColor=none;strokeColor=#E07A5F;fontColor=default;" edge="1" parent="1">
          <mxGeometry relative="1" as="geometry">
            <mxPoint x="480" y="534.41" as="sourcePoint" />
            <mxPoint x="750" y="480" as="targetPoint" />
          </mxGeometry>
        </mxCell>
        <mxCell id="4seNNqvkDYJwsG72tz4Y-74" value="" style="endArrow=none;html=1;rounded=0;labelBackgroundColor=none;strokeColor=#E07A5F;fontColor=default;" edge="1" parent="1">
          <mxGeometry relative="1" as="geometry">
            <mxPoint x="473" y="594.41" as="sourcePoint" />
            <mxPoint x="720" y="500" as="targetPoint" />
          </mxGeometry>
        </mxCell>
        <mxCell id="4seNNqvkDYJwsG72tz4Y-75" value="" style="endArrow=none;html=1;rounded=0;labelBackgroundColor=none;strokeColor=#E07A5F;fontColor=default;" edge="1" parent="1">
          <mxGeometry relative="1" as="geometry">
            <mxPoint x="480" y="654.41" as="sourcePoint" />
            <mxPoint x="720" y="510" as="targetPoint" />
          </mxGeometry>
        </mxCell>
        <mxCell id="4seNNqvkDYJwsG72tz4Y-76" value="" style="endArrow=none;html=1;rounded=0;labelBackgroundColor=none;strokeColor=#E07A5F;fontColor=default;" edge="1" parent="1">
          <mxGeometry relative="1" as="geometry">
            <mxPoint x="480" y="714.41" as="sourcePoint" />
            <mxPoint x="720" y="520" as="targetPoint" />
          </mxGeometry>
        </mxCell>
        <mxCell id="4seNNqvkDYJwsG72tz4Y-77" value="" style="endArrow=none;html=1;rounded=0;labelBackgroundColor=none;strokeColor=#E07A5F;fontColor=default;" edge="1" parent="1">
          <mxGeometry relative="1" as="geometry">
            <mxPoint x="480" y="774.4100000000001" as="sourcePoint" />
            <mxPoint x="720" y="530" as="targetPoint" />
          </mxGeometry>
        </mxCell>
        <mxCell id="4seNNqvkDYJwsG72tz4Y-78" value="" style="endArrow=none;html=1;rounded=0;labelBackgroundColor=none;strokeColor=#E07A5F;fontColor=default;" edge="1" parent="1">
          <mxGeometry relative="1" as="geometry">
            <mxPoint x="480" y="344.40999999999997" as="sourcePoint" />
            <mxPoint x="750" y="460" as="targetPoint" />
          </mxGeometry>
        </mxCell>
        <mxCell id="4seNNqvkDYJwsG72tz4Y-80" value="" style="endArrow=none;html=1;rounded=0;labelBackgroundColor=none;strokeColor=#E07A5F;fontColor=default;" edge="1" parent="1">
          <mxGeometry relative="1" as="geometry">
            <mxPoint x="480" y="284.41" as="sourcePoint" />
            <mxPoint x="750" y="450" as="targetPoint" />
          </mxGeometry>
        </mxCell>
        <mxCell id="4seNNqvkDYJwsG72tz4Y-81" value="" style="endArrow=none;html=1;rounded=0;labelBackgroundColor=none;strokeColor=#E07A5F;fontColor=default;" edge="1" parent="1">
          <mxGeometry relative="1" as="geometry">
            <mxPoint x="480" y="214.41000000000003" as="sourcePoint" />
            <mxPoint x="750" y="440" as="targetPoint" />
          </mxGeometry>
        </mxCell>
      </root>
    </mxGraphModel>
  </diagram>
</mxfile>
